<svg xmlns="http://www.w3.org/2000/svg" viewBox="100 -860 760 760">
  <defs>
    <linearGradient id="tableGradient" x1="0%" y1="0%" x2="100%" y2="100%">
      <stop offset="0%" style="stop-color:#e65c00;stop-opacity:1" />
      <stop offset="100%" style="stop-color:#F9D423;stop-opacity:1" />
    </linearGradient>
  </defs>
  <path fill="url(#tableGradient)" d="M200-120q-33 0-56.5-23.5T120-200v-560q0-33 23.5-56.5T200-840h560q33 0 56.5 23.5T840-760v560q0 33-23.5 56.5T760-120H200Zm240-240H200v160h240v-160Zm80 0v160h240v-160H520Zm-80-80v-160H200v160h240Zm80 0h240v-160H520v160ZM200-680h560v-80H200v80Z"/>
</svg>