<?xml version='1.0' encoding='utf-8'?>
<svg xmlns="http://www.w3.org/2000/svg" width="45mm" height="45mm" version="1.1" viewBox="0 0 45 45" fill_color="black" back_color="white"><path d="M0,0H1V1H0zM1,0H2V1H1zM2,0H3V1H2zM3,0H4V1H3zM4,0H5V1H4zM5,0H6V1H5zM6,0H7V1H6zM8,0H9V1H8zM12,0H13V1H12zM13,0H14V1H13zM15,0H16V1H15zM16,0H17V1H16zM17,0H18V1H17zM18,0H19V1H18zM21,0H22V1H21zM24,0H25V1H24zM26,0H27V1H26zM27,0H28V1H27zM29,0H30V1H29zM30,0H31V1H30zM32,0H33V1H32zM36,0H37V1H36zM38,0H39V1H38zM39,0H40V1H39zM40,0H41V1H40zM41,0H42V1H41zM42,0H43V1H42zM43,0H44V1H43zM44,0H45V1H44zM0,1H1V2H0zM6,1H7V2H6zM8,1H9V2H8zM9,1H10V2H9zM10,1H11V2H10zM14,1H15V2H14zM16,1H17V2H16zM17,1H18V2H17zM20,1H21V2H20zM23,1H24V2H23zM28,1H29V2H28zM29,1H30V2H29zM30,1H31V2H30zM31,1H32V2H31zM33,1H34V2H33zM35,1H36V2H35zM38,1H39V2H38zM44,1H45V2H44zM0,2H1V3H0zM2,2H3V3H2zM3,2H4V3H3zM4,2H5V3H4zM6,2H7V3H6zM9,2H10V3H9zM13,2H14V3H13zM14,2H15V3H14zM15,2H16V3H15zM17,2H18V3H17zM18,2H19V3H18zM19,2H20V3H19zM21,2H22V3H21zM24,2H25V3H24zM25,2H26V3H25zM28,2H29V3H28zM30,2H31V3H30zM31,2H32V3H31zM35,2H36V3H35zM38,2H39V3H38zM40,2H41V3H40zM41,2H42V3H41zM42,2H43V3H42zM44,2H45V3H44zM0,3H1V4H0zM2,3H3V4H2zM3,3H4V4H3zM4,3H5V4H4zM6,3H7V4H6zM8,3H9V4H8zM11,3H12V4H11zM15,3H16V4H15zM16,3H17V4H16zM17,3H18V4H17zM26,3H27V4H26zM28,3H29V4H28zM29,3H30V4H29zM30,3H31V4H30zM31,3H32V4H31zM35,3H36V4H35zM36,3H37V4H36zM38,3H39V4H38zM40,3H41V4H40zM41,3H42V4H41zM42,3H43V4H42zM44,3H45V4H44zM0,4H1V5H0zM2,4H3V5H2zM3,4H4V5H3zM4,4H5V5H4zM6,4H7V5H6zM8,4H9V5H8zM10,4H11V5H10zM13,4H14V5H13zM15,4H16V5H15zM16,4H17V5H16zM18,4H19V5H18zM20,4H21V5H20zM21,4H22V5H21zM22,4H23V5H22zM23,4H24V5H23zM24,4H25V5H24zM28,4H29V5H28zM30,4H31V5H30zM32,4H33V5H32zM33,4H34V5H33zM34,4H35V5H34zM35,4H36V5H35zM36,4H37V5H36zM38,4H39V5H38zM40,4H41V5H40zM41,4H42V5H41zM42,4H43V5H42zM44,4H45V5H44zM0,5H1V6H0zM6,5H7V6H6zM8,5H9V6H8zM9,5H10V6H9zM10,5H11V6H10zM11,5H12V6H11zM12,5H13V6H12zM13,5H14V6H13zM14,5H15V6H14zM15,5H16V6H15zM16,5H17V6H16zM17,5H18V6H17zM19,5H20V6H19zM20,5H21V6H20zM24,5H25V6H24zM28,5H29V6H28zM29,5H30V6H29zM30,5H31V6H30zM31,5H32V6H31zM32,5H33V6H32zM38,5H39V6H38zM44,5H45V6H44zM0,6H1V7H0zM1,6H2V7H1zM2,6H3V7H2zM3,6H4V7H3zM4,6H5V7H4zM5,6H6V7H5zM6,6H7V7H6zM8,6H9V7H8zM10,6H11V7H10zM12,6H13V7H12zM14,6H15V7H14zM16,6H17V7H16zM18,6H19V7H18zM20,6H21V7H20zM22,6H23V7H22zM24,6H25V7H24zM26,6H27V7H26zM28,6H29V7H28zM30,6H31V7H30zM32,6H33V7H32zM34,6H35V7H34zM36,6H37V7H36zM38,6H39V7H38zM39,6H40V7H39zM40,6H41V7H40zM41,6H42V7H41zM42,6H43V7H42zM43,6H44V7H43zM44,6H45V7H44zM11,7H12V8H11zM12,7H13V8H12zM13,7H14V8H13zM19,7H20V8H19zM20,7H21V8H20zM24,7H25V8H24zM26,7H27V8H26zM27,7H28V8H27zM28,7H29V8H28zM29,7H30V8H29zM31,7H32V8H31zM32,7H33V8H32zM35,7H36V8H35zM3,8H4V9H3zM6,8H7V9H6zM9,8H10V9H9zM12,8H13V9H12zM15,8H16V9H15zM16,8H17V9H16zM20,8H21V9H20zM21,8H22V9H21zM22,8H23V9H22zM23,8H24V9H23zM24,8H25V9H24zM25,8H26V9H25zM26,8H27V9H26zM28,8H29V9H28zM30,8H31V9H30zM31,8H32V9H31zM33,8H34V9H33zM35,8H36V9H35zM39,8H40V9H39zM40,8H41V9H40zM41,8H42V9H41zM43,8H44V9H43zM44,8H45V9H44zM0,9H1V10H0zM1,9H2V10H1zM2,9H3V10H2zM3,9H4V10H3zM7,9H8V10H7zM11,9H12V10H11zM12,9H13V10H12zM13,9H14V10H13zM15,9H16V10H15zM16,9H17V10H16zM17,9H18V10H17zM20,9H21V10H20zM26,9H27V10H26zM27,9H28V10H27zM28,9H29V10H28zM32,9H33V10H32zM33,9H34V10H33zM37,9H38V10H37zM39,9H40V10H39zM40,9H41V10H40zM42,9H43V10H42zM43,9H44V10H43zM44,9H45V10H44zM1,10H2V11H1zM5,10H6V11H5zM6,10H7V11H6zM7,10H8V11H7zM8,10H9V11H8zM9,10H10V11H9zM10,10H11V11H10zM12,10H13V11H12zM13,10H14V11H13zM16,10H17V11H16zM17,10H18V11H17zM18,10H19V11H18zM19,10H20V11H19zM20,10H21V11H20zM23,10H24V11H23zM24,10H25V11H24zM27,10H28V11H27zM28,10H29V11H28zM29,10H30V11H29zM31,10H32V11H31zM32,10H33V11H32zM34,10H35V11H34zM36,10H37V11H36zM37,10H38V11H37zM39,10H40V11H39zM40,10H41V11H40zM44,10H45V11H44zM0,11H1V12H0zM1,11H2V12H1zM4,11H5V12H4zM5,11H6V12H5zM7,11H8V12H7zM8,11H9V12H8zM10,11H11V12H10zM11,11H12V12H11zM14,11H15V12H14zM15,11H16V12H15zM19,11H20V12H19zM20,11H21V12H20zM22,11H23V12H22zM25,11H26V12H25zM26,11H27V12H26zM29,11H30V12H29zM31,11H32V12H31zM33,11H34V12H33zM35,11H36V12H35zM37,11H38V12H37zM38,11H39V12H38zM39,11H40V12H39zM40,11H41V12H40zM41,11H42V12H41zM44,11H45V12H44zM1,12H2V13H1zM2,12H3V13H2zM3,12H4V13H3zM4,12H5V13H4zM6,12H7V13H6zM7,12H8V13H7zM10,12H11V13H10zM13,12H14V13H13zM14,12H15V13H14zM16,12H17V13H16zM19,12H20V13H19zM20,12H21V13H20zM21,12H22V13H21zM24,12H25V13H24zM25,12H26V13H25zM28,12H29V13H28zM30,12H31V13H30zM31,12H32V13H31zM32,12H33V13H32zM35,12H36V13H35zM38,12H39V13H38zM39,12H40V13H39zM40,12H41V13H40zM41,12H42V13H41zM0,13H1V14H0zM2,13H3V14H2zM4,13H5V14H4zM5,13H6V14H5zM7,13H8V14H7zM8,13H9V14H8zM10,13H11V14H10zM11,13H12V14H11zM15,13H16V14H15zM16,13H17V14H16zM19,13H20V14H19zM20,13H21V14H20zM23,13H24V14H23zM24,13H25V14H24zM25,13H26V14H25zM26,13H27V14H26zM28,13H29V14H28zM29,13H30V14H29zM32,13H33V14H32zM34,13H35V14H34zM35,13H36V14H35zM37,13H38V14H37zM39,13H40V14H39zM41,13H42V14H41zM42,13H43V14H42zM43,13H44V14H43zM44,13H45V14H44zM2,14H3V15H2zM3,14H4V15H3zM4,14H5V15H4zM6,14H7V15H6zM8,14H9V15H8zM10,14H11V15H10zM11,14H12V15H11zM12,14H13V15H12zM13,14H14V15H13zM15,14H16V15H15zM20,14H21V15H20zM22,14H23V15H22zM23,14H24V15H23zM24,14H25V15H24zM31,14H32V15H31zM32,14H33V15H32zM35,14H36V15H35zM37,14H38V15H37zM38,14H39V15H38zM39,14H40V15H39zM41,14H42V15H41zM42,14H43V15H42zM0,15H1V16H0zM7,15H8V16H7zM9,15H10V16H9zM10,15H11V16H10zM11,15H12V16H11zM13,15H14V16H13zM14,15H15V16H14zM17,15H18V16H17zM18,15H19V16H18zM21,15H22V16H21zM22,15H23V16H22zM23,15H24V16H23zM25,15H26V16H25zM27,15H28V16H27zM28,15H29V16H28zM30,15H31V16H30zM32,15H33V16H32zM33,15H34V16H33zM35,15H36V16H35zM40,15H41V16H40zM43,15H44V16H43zM1,16H2V17H1zM2,16H3V17H2zM4,16H5V17H4zM6,16H7V17H6zM9,16H10V17H9zM10,16H11V17H10zM13,16H14V17H13zM19,16H20V17H19zM20,16H21V17H20zM21,16H22V17H21zM25,16H26V17H25zM31,16H32V17H31zM32,16H33V17H32zM33,16H34V17H33zM34,16H35V17H34zM38,16H39V17H38zM41,16H42V17H41zM44,16H45V17H44zM0,17H1V18H0zM5,17H6V18H5zM9,17H10V18H9zM11,17H12V18H11zM14,17H15V18H14zM17,17H18V18H17zM18,17H19V18H18zM22,17H23V18H22zM23,17H24V18H23zM24,17H25V18H24zM25,17H26V18H25zM26,17H27V18H26zM27,17H28V18H27zM28,17H29V18H28zM29,17H30V18H29zM30,17H31V18H30zM32,17H33V18H32zM33,17H34V18H33zM35,17H36V18H35zM38,17H39V18H38zM39,17H40V18H39zM41,17H42V18H41zM0,18H1V19H0zM1,18H2V19H1zM6,18H7V19H6zM11,18H12V19H11zM16,18H17V19H16zM18,18H19V19H18zM19,18H20V19H19zM23,18H24V19H23zM25,18H26V19H25zM27,18H28V19H27zM28,18H29V19H28zM30,18H31V19H30zM31,18H32V19H31zM33,18H34V19H33zM35,18H36V19H35zM36,18H37V19H36zM37,18H38V19H37zM39,18H40V19H39zM40,18H41V19H40zM42,18H43V19H42zM43,18H44V19H43zM44,18H45V19H44zM2,19H3V20H2zM8,19H9V20H8zM9,19H10V20H9zM10,19H11V20H10zM11,19H12V20H11zM15,19H16V20H15zM18,19H19V20H18zM19,19H20V20H19zM20,19H21V20H20zM21,19H22V20H21zM23,19H24V20H23zM25,19H26V20H25zM26,19H27V20H26zM28,19H29V20H28zM29,19H30V20H29zM32,19H33V20H32zM33,19H34V20H33zM35,19H36V20H35zM37,19H38V20H37zM39,19H40V20H39zM0,20H1V21H0zM4,20H5V21H4zM5,20H6V21H5zM6,20H7V21H6zM7,20H8V21H7zM8,20H9V21H8zM11,20H12V21H11zM12,20H13V21H12zM13,20H14V21H13zM15,20H16V21H15zM17,20H18V21H17zM18,20H19V21H18zM19,20H20V21H19zM20,20H21V21H20zM21,20H22V21H21zM22,20H23V21H22zM23,20H24V21H23zM24,20H25V21H24zM30,20H31V21H30zM31,20H32V21H31zM34,20H35V21H34zM35,20H36V21H35zM36,20H37V21H36zM37,20H38V21H37zM38,20H39V21H38zM39,20H40V21H39zM40,20H41V21H40zM41,20H42V21H41zM43,20H44V21H43zM44,20H45V21H44zM0,21H1V22H0zM2,21H3V22H2zM3,21H4V22H3zM4,21H5V22H4zM8,21H9V22H8zM10,21H11V22H10zM11,21H12V22H11zM12,21H13V22H12zM14,21H15V22H14zM15,21H16V22H15zM17,21H18V22H17zM18,21H19V22H18zM20,21H21V22H20zM24,21H25V22H24zM29,21H30V22H29zM32,21H33V22H32zM36,21H37V22H36zM40,21H41V22H40zM43,21H44V22H43zM44,21H45V22H44zM0,22H1V23H0zM1,22H2V23H1zM4,22H5V23H4zM6,22H7V23H6zM8,22H9V23H8zM12,22H13V23H12zM14,22H15V23H14zM15,22H16V23H15zM18,22H19V23H18zM20,22H21V23H20zM22,22H23V23H22zM24,22H25V23H24zM25,22H26V23H25zM28,22H29V23H28zM29,22H30V23H29zM30,22H31V23H30zM34,22H35V23H34zM36,22H37V23H36zM38,22H39V23H38zM40,22H41V23H40zM41,22H42V23H41zM44,22H45V23H44zM1,23H2V24H1zM2,23H3V24H2zM4,23H5V24H4zM8,23H9V24H8zM10,23H11V24H10zM12,23H13V24H12zM14,23H15V24H14zM15,23H16V24H15zM16,23H17V24H16zM17,23H18V24H17zM19,23H20V24H19zM20,23H21V24H20zM24,23H25V24H24zM25,23H26V24H25zM28,23H29V24H28zM29,23H30V24H29zM31,23H32V24H31zM32,23H33V24H32zM33,23H34V24H33zM36,23H37V24H36zM40,23H41V24H40zM43,23H44V24H43zM44,23H45V24H44zM1,24H2V25H1zM3,24H4V25H3zM4,24H5V25H4zM5,24H6V25H5zM6,24H7V25H6zM7,24H8V25H7zM8,24H9V25H8zM9,24H10V25H9zM11,24H12V25H11zM14,24H15V25H14zM16,24H17V25H16zM17,24H18V25H17zM19,24H20V25H19zM20,24H21V25H20zM21,24H22V25H21zM22,24H23V25H22zM23,24H24V25H23zM24,24H25V25H24zM26,24H27V25H26zM29,24H30V25H29zM31,24H32V25H31zM34,24H35V25H34zM36,24H37V25H36zM37,24H38V25H37zM38,24H39V25H38zM39,24H40V25H39zM40,24H41V25H40zM41,24H42V25H41zM43,24H44V25H43zM0,25H1V26H0zM2,25H3V26H2zM3,25H4V26H3zM4,25H5V26H4zM5,25H6V26H5zM7,25H8V26H7zM10,25H11V26H10zM11,25H12V26H11zM12,25H13V26H12zM14,25H15V26H14zM16,25H17V26H16zM18,25H19V26H18zM19,25H20V26H19zM21,25H22V26H21zM22,25H23V26H22zM24,25H25V26H24zM27,25H28V26H27zM30,25H31V26H30zM32,25H33V26H32zM33,25H34V26H33zM34,25H35V26H34zM38,25H39V26H38zM40,25H41V26H40zM41,25H42V26H41zM44,25H45V26H44zM0,26H1V27H0zM3,26H4V27H3zM5,26H6V27H5zM6,26H7V27H6zM7,26H8V27H7zM11,26H12V27H11zM12,26H13V27H12zM13,26H14V27H13zM15,26H16V27H15zM18,26H19V27H18zM19,26H20V27H19zM23,26H24V27H23zM25,26H26V27H25zM26,26H27V27H26zM27,26H28V27H27zM28,26H29V27H28zM29,26H30V27H29zM31,26H32V27H31zM32,26H33V27H32zM39,26H40V27H39zM40,26H41V27H40zM42,26H43V27H42zM0,27H1V28H0zM2,27H3V28H2zM4,27H5V28H4zM5,27H6V28H5zM7,27H8V28H7zM9,27H10V28H9zM11,27H12V28H11zM12,27H13V28H12zM14,27H15V28H14zM15,27H16V28H15zM16,27H17V28H16zM17,27H18V28H17zM18,27H19V28H18zM21,27H22V28H21zM22,27H23V28H22zM23,27H24V28H23zM26,27H27V28H26zM28,27H29V28H28zM29,27H30V28H29zM30,27H31V28H30zM32,27H33V28H32zM34,27H35V28H34zM36,27H37V28H36zM38,27H39V28H38zM40,27H41V28H40zM41,27H42V28H41zM43,27H44V28H43zM44,27H45V28H44zM0,28H1V29H0zM2,28H3V29H2zM4,28H5V29H4zM5,28H6V29H5zM6,28H7V29H6zM7,28H8V29H7zM8,28H9V29H8zM10,28H11V29H10zM11,28H12V29H11zM13,28H14V29H13zM14,28H15V29H14zM16,28H17V29H16zM19,28H20V29H19zM21,28H22V29H21zM23,28H24V29H23zM26,28H27V29H26zM27,28H28V29H27zM28,28H29V29H28zM30,28H31V29H30zM32,28H33V29H32zM33,28H34V29H33zM34,28H35V29H34zM39,28H40V29H39zM40,28H41V29H40zM43,28H44V29H43zM44,28H45V29H44zM1,29H2V30H1zM3,29H4V30H3zM7,29H8V30H7zM8,29H9V30H8zM9,29H10V30H9zM13,29H14V30H13zM14,29H15V30H14zM15,29H16V30H15zM17,29H18V30H17zM19,29H20V30H19zM20,29H21V30H20zM22,29H23V30H22zM25,29H26V30H25zM26,29H27V30H26zM27,29H28V30H27zM28,29H29V30H28zM32,29H33V30H32zM43,29H44V30H43zM1,30H2V31H1zM3,30H4V31H3zM4,30H5V31H4zM6,30H7V31H6zM9,30H10V31H9zM10,30H11V31H10zM15,30H16V31H15zM16,30H17V31H16zM17,30H18V31H17zM18,30H19V31H18zM22,30H23V31H22zM24,30H25V31H24zM25,30H26V31H25zM27,30H28V31H27zM28,30H29V31H28zM29,30H30V31H29zM32,30H33V31H32zM37,30H38V31H37zM38,30H39V31H38zM40,30H41V31H40zM43,30H44V31H43zM44,30H45V31H44zM2,31H3V32H2zM5,31H6V32H5zM7,31H8V32H7zM10,31H11V32H10zM12,31H13V32H12zM13,31H14V32H13zM14,31H15V32H14zM16,31H17V32H16zM17,31H18V32H17zM20,31H21V32H20zM23,31H24V32H23zM24,31H25V32H24zM25,31H26V32H25zM26,31H27V32H26zM29,31H30V32H29zM30,31H31V32H30zM32,31H33V32H32zM36,31H37V32H36zM37,31H38V32H37zM38,31H39V32H38zM40,31H41V32H40zM43,31H44V32H43zM44,31H45V32H44zM3,32H4V33H3zM4,32H5V33H4zM6,32H7V33H6zM7,32H8V33H7zM8,32H9V33H8zM9,32H10V33H9zM12,32H13V33H12zM14,32H15V33H14zM15,32H16V33H15zM17,32H18V33H17zM20,32H21V33H20zM22,32H23V33H22zM29,32H30V33H29zM30,32H31V33H30zM34,32H35V33H34zM35,32H36V33H35zM36,32H37V33H36zM37,32H38V33H37zM38,32H39V33H38zM0,33H1V34H0zM1,33H2V34H1zM2,33H3V34H2zM3,33H4V34H3zM8,33H9V34H8zM13,33H14V34H13zM16,33H17V34H16zM18,33H19V34H18zM22,33H23V34H22zM24,33H25V34H24zM25,33H26V34H25zM27,33H28V34H27zM30,33H31V34H30zM32,33H33V34H32zM37,33H38V34H37zM38,33H39V34H38zM44,33H45V34H44zM4,34H5V35H4zM6,34H7V35H6zM10,34H11V35H10zM11,34H12V35H11zM13,34H14V35H13zM14,34H15V35H14zM15,34H16V35H15zM16,34H17V35H16zM17,34H18V35H17zM18,34H19V35H18zM23,34H24V35H23zM25,34H26V35H25zM26,34H27V35H26zM27,34H28V35H27zM28,34H29V35H28zM29,34H30V35H29zM32,34H33V35H32zM34,34H35V35H34zM38,34H39V35H38zM39,34H40V35H39zM42,34H43V35H42zM43,34H44V35H43zM44,34H45V35H44zM1,35H2V36H1zM2,35H3V36H2zM3,35H4V36H3zM4,35H5V36H4zM7,35H8V36H7zM9,35H10V36H9zM10,35H11V36H10zM11,35H12V36H11zM12,35H13V36H12zM13,35H14V36H13zM16,35H17V36H16zM17,35H18V36H17zM18,35H19V36H18zM23,35H24V36H23zM24,35H25V36H24zM30,35H31V36H30zM31,35H32V36H31zM33,35H34V36H33zM34,35H35V36H34zM35,35H36V36H35zM37,35H38V36H37zM41,35H42V36H41zM44,35H45V36H44zM0,36H1V37H0zM3,36H4V37H3zM4,36H5V37H4zM6,36H7V37H6zM9,36H10V37H9zM11,36H12V37H11zM13,36H14V37H13zM14,36H15V37H14zM16,36H17V37H16zM19,36H20V37H19zM20,36H21V37H20zM21,36H22V37H21zM22,36H23V37H22zM23,36H24V37H23zM24,36H25V37H24zM26,36H27V37H26zM27,36H28V37H27zM29,36H30V37H29zM32,36H33V37H32zM33,36H34V37H33zM34,36H35V37H34zM36,36H37V37H36zM37,36H38V37H37zM38,36H39V37H38zM39,36H40V37H39zM40,36H41V37H40zM41,36H42V37H41zM43,36H44V37H43zM44,36H45V37H44zM8,37H9V38H8zM12,37H13V38H12zM13,37H14V38H13zM15,37H16V38H15zM16,37H17V38H16zM19,37H20V38H19zM20,37H21V38H20zM24,37H25V38H24zM26,37H27V38H26zM30,37H31V38H30zM31,37H32V38H31zM33,37H34V38H33zM34,37H35V38H34zM35,37H36V38H35zM36,37H37V38H36zM40,37H41V38H40zM41,37H42V38H41zM42,37H43V38H42zM44,37H45V38H44zM0,38H1V39H0zM1,38H2V39H1zM2,38H3V39H2zM3,38H4V39H3zM4,38H5V39H4zM5,38H6V39H5zM6,38H7V39H6zM9,38H10V39H9zM13,38H14V39H13zM15,38H16V39H15zM18,38H19V39H18zM20,38H21V39H20zM22,38H23V39H22zM24,38H25V39H24zM27,38H28V39H27zM29,38H30V39H29zM30,38H31V39H30zM31,38H32V39H31zM33,38H34V39H33zM35,38H36V39H35zM36,38H37V39H36zM38,38H39V39H38zM40,38H41V39H40zM42,38H43V39H42zM43,38H44V39H43zM0,39H1V40H0zM6,39H7V40H6zM10,39H11V40H10zM11,39H12V40H11zM17,39H18V40H17zM20,39H21V40H20zM24,39H25V40H24zM25,39H26V40H25zM26,39H27V40H26zM27,39H28V40H27zM28,39H29V40H28zM30,39H31V40H30zM31,39H32V40H31zM32,39H33V40H32zM35,39H36V40H35zM36,39H37V40H36zM40,39H41V40H40zM0,40H1V41H0zM2,40H3V41H2zM3,40H4V41H3zM4,40H5V41H4zM6,40H7V41H6zM9,40H10V41H9zM13,40H14V41H13zM14,40H15V41H14zM15,40H16V41H15zM16,40H17V41H16zM20,40H21V41H20zM21,40H22V41H21zM22,40H23V41H22zM23,40H24V41H23zM24,40H25V41H24zM25,40H26V41H25zM32,40H33V41H32zM33,40H34V41H33zM36,40H37V41H36zM37,40H38V41H37zM38,40H39V41H38zM39,40H40V41H39zM40,40H41V41H40zM44,40H45V41H44zM0,41H1V42H0zM2,41H3V42H2zM3,41H4V42H3zM4,41H5V42H4zM6,41H7V42H6zM8,41H9V42H8zM13,41H14V42H13zM14,41H15V42H14zM16,41H17V42H16zM21,41H22V42H21zM22,41H23V42H22zM23,41H24V42H23zM26,41H27V42H26zM27,41H28V42H27zM32,41H33V42H32zM36,41H37V42H36zM37,41H38V42H37zM38,41H39V42H38zM39,41H40V42H39zM40,41H41V42H40zM0,42H1V43H0zM2,42H3V43H2zM3,42H4V43H3zM4,42H5V43H4zM6,42H7V43H6zM10,42H11V43H10zM12,42H13V43H12zM15,42H16V43H15zM17,42H18V43H17zM18,42H19V43H18zM19,42H20V43H19zM24,42H25V43H24zM25,42H26V43H25zM27,42H28V43H27zM28,42H29V43H28zM30,42H31V43H30zM31,42H32V43H31zM35,42H36V43H35zM36,42H37V43H36zM37,42H38V43H37zM39,42H40V43H39zM40,42H41V43H40zM42,42H43V43H42zM44,42H45V43H44zM0,43H1V44H0zM6,43H7V44H6zM9,43H10V44H9zM10,43H11V44H10zM11,43H12V44H11zM13,43H14V44H13zM14,43H15V44H14zM20,43H21V44H20zM21,43H22V44H21zM22,43H23V44H22zM26,43H27V44H26zM28,43H29V44H28zM35,43H36V44H35zM40,43H41V44H40zM41,43H42V44H41zM0,44H1V45H0zM1,44H2V45H1zM2,44H3V45H2zM3,44H4V45H3zM4,44H5V45H4zM5,44H6V45H5zM6,44H7V45H6zM9,44H10V45H9zM13,44H14V45H13zM15,44H16V45H15zM17,44H18V45H17zM20,44H21V45H20zM21,44H22V45H21zM23,44H24V45H23zM24,44H25V45H24zM25,44H26V45H25zM27,44H28V45H27zM30,44H31V45H30zM33,44H34V45H33zM36,44H37V45H36zM37,44H38V45H37zM38,44H39V45H38zM39,44H40V45H39zM43,44H44V45H43z" id="qr-path" fill="#000000" fill-opacity="1" fill-rule="nonzero" stroke="none" /><g transform="translate(22.5, 22.5)"><circle cx="0" cy="0" r="7.874999999999999" fill="white" /><g transform="scale(0.014802631578947368) translate(-480.0, 480.0)"><defs>
    <linearGradient id="tableGradient" x1="0%" y1="0%" x2="100%" y2="100%">
      <stop offset="0%" style="stop-color:#e65c00;stop-opacity:1" />
      <stop offset="100%" style="stop-color:#F9D423;stop-opacity:1" />
    </linearGradient>
  </defs>
  <path fill="url(#tableGradient)" d="M200-120q-33 0-56.5-23.5T120-200v-560q0-33 23.5-56.5T200-840h560q33 0 56.5 23.5T840-760v560q0 33-23.5 56.5T760-120H200Zm240-240H200v160h240v-160Zm80 0v160h240v-160H520Zm-80-80v-160H200v160h240Zm80 0h240v-160H520v160ZM200-680h560v-80H200v80Z" />
</g></g></svg>